<svg width="28" height="28" viewBox="0 0 28 28" fill="none" xmlns="http://www.w3.org/2000/svg">
<path d="M2.5625 25.4376H4.16667L20.3177 9.28654L18.7135 7.68237L2.5625 23.8334V25.4376ZM24.9479 7.71883L20.2812 3.05216L21.8125 1.52091C22.2257 1.10772 22.7361 0.901123 23.3437 0.901123C23.9514 0.901123 24.4618 1.10772 24.875 1.52091L26.4792 3.12508C26.8924 3.53828 27.099 4.04869 27.099 4.65633C27.099 5.26397 26.8924 5.77439 26.4792 6.18758L24.9479 7.71883ZM23.4167 9.25008L5.04167 27.6251H0.375V22.9584L18.75 4.58341L23.4167 9.25008ZM19.5156 8.48446L18.7135 7.68237L20.3177 9.28654L19.5156 8.48446Z" fill="#4200FF"/>
</svg>
