<svg width="204" height="22" viewBox="0 0 204 22" fill="none" xmlns="http://www.w3.org/2000/svg">
<path d="M39.14 16.02L34.42 9.82V16.02H31V1.98H34.42V8.14L39.1 1.98H43.12L37.68 8.86L43.32 16.02H39.14Z" fill="black"/>
<path d="M55.4653 10.26C55.4653 10.58 55.4453 10.9133 55.4053 11.26H47.6653C47.7186 11.9533 47.9386 12.4867 48.3253 12.86C48.7253 13.22 49.212 13.4 49.7853 13.4C50.6386 13.4 51.232 13.04 51.5653 12.32H55.2053C55.0186 13.0533 54.6786 13.7133 54.1853 14.3C53.7053 14.8867 53.0986 15.3467 52.3653 15.68C51.632 16.0133 50.812 16.18 49.9053 16.18C48.812 16.18 47.8386 15.9467 46.9853 15.48C46.132 15.0133 45.4653 14.3467 44.9853 13.48C44.5053 12.6133 44.2653 11.6 44.2653 10.44C44.2653 9.28 44.4986 8.26667 44.9653 7.4C45.4453 6.53333 46.112 5.86667 46.9653 5.4C47.8186 4.93333 48.7986 4.7 49.9053 4.7C50.9853 4.7 51.9453 4.92667 52.7853 5.38C53.6253 5.83333 54.2786 6.48 54.7453 7.32C55.2253 8.16 55.4653 9.14 55.4653 10.26ZM51.9653 9.36C51.9653 8.77333 51.7653 8.30667 51.3653 7.96C50.9653 7.61333 50.4653 7.44 49.8653 7.44C49.292 7.44 48.8053 7.60667 48.4053 7.94C48.0186 8.27333 47.7786 8.74667 47.6853 9.36H51.9653Z" fill="black"/>
<path d="M64.0695 4.74C65.3762 4.74 66.4162 5.16667 67.1895 6.02C67.9762 6.86 68.3695 8.02 68.3695 9.5V16.02H64.9695V9.96C64.9695 9.21333 64.7762 8.63333 64.3895 8.22C64.0029 7.80667 63.4829 7.6 62.8295 7.6C62.1762 7.6 61.6562 7.80667 61.2695 8.22C60.8829 8.63333 60.6895 9.21333 60.6895 9.96V16.02H57.2695V4.86H60.6895V6.34C61.0362 5.84667 61.5029 5.46 62.0895 5.18C62.6762 4.88667 63.3362 4.74 64.0695 4.74Z" fill="black"/>
<path d="M73.9461 13.2H78.7861V16.02H70.1261V13.3L74.7661 7.68H70.1661V4.86H78.6861V7.58L73.9461 13.2Z" fill="black"/>
<path d="M82.388 3.7C81.788 3.7 81.2946 3.52667 80.908 3.18C80.5346 2.82 80.348 2.38 80.348 1.86C80.348 1.32667 80.5346 0.886667 80.908 0.54C81.2946 0.18 81.788 0 82.388 0C82.9746 0 83.4546 0.18 83.828 0.54C84.2146 0.886667 84.408 1.32667 84.408 1.86C84.408 2.38 84.2146 2.82 83.828 3.18C83.4546 3.52667 82.9746 3.7 82.388 3.7ZM84.088 4.86V16.02H80.668V4.86H84.088Z" fill="black"/>
<path d="M97.0864 10.26C97.0864 10.58 97.0664 10.9133 97.0264 11.26H89.2864C89.3397 11.9533 89.5597 12.4867 89.9464 12.86C90.3464 13.22 90.8331 13.4 91.4064 13.4C92.2597 13.4 92.8531 13.04 93.1864 12.32H96.8264C96.6397 13.0533 96.2997 13.7133 95.8064 14.3C95.3264 14.8867 94.7197 15.3467 93.9864 15.68C93.2531 16.0133 92.4331 16.18 91.5264 16.18C90.4331 16.18 89.4597 15.9467 88.6064 15.48C87.7531 15.0133 87.0864 14.3467 86.6064 13.48C86.1264 12.6133 85.8864 11.6 85.8864 10.44C85.8864 9.28 86.1197 8.26667 86.5864 7.4C87.0664 6.53333 87.7331 5.86667 88.5864 5.4C89.4397 4.93333 90.4197 4.7 91.5264 4.7C92.6064 4.7 93.5664 4.92667 94.4064 5.38C95.2464 5.83333 95.8997 6.48 96.3664 7.32C96.8464 8.16 97.0864 9.14 97.0864 10.26ZM93.5864 9.36C93.5864 8.77333 93.3864 8.30667 92.9864 7.96C92.5864 7.61333 92.0864 7.44 91.4864 7.44C90.9131 7.44 90.4264 7.60667 90.0264 7.94C89.6397 8.27333 89.3997 8.74667 89.3064 9.36H93.5864Z" fill="black"/>
<path d="M106.549 4.72V7.56H111.129V10.2H106.549V13.28H111.729V16.02H103.129V1.98H111.729V4.72H106.549Z" fill="black"/>
<path d="M128.189 4.74C129.576 4.74 130.676 5.16 131.489 6C132.316 6.84 132.729 8.00667 132.729 9.5V16.02H129.329V9.96C129.329 9.24 129.136 8.68667 128.749 8.3C128.376 7.9 127.856 7.7 127.189 7.7C126.523 7.7 125.996 7.9 125.609 8.3C125.236 8.68667 125.049 9.24 125.049 9.96V16.02H121.649V9.96C121.649 9.24 121.456 8.68667 121.069 8.3C120.696 7.9 120.176 7.7 119.509 7.7C118.843 7.7 118.316 7.9 117.929 8.3C117.556 8.68667 117.369 9.24 117.369 9.96V16.02H113.949V4.86H117.369V6.26C117.716 5.79333 118.169 5.42667 118.729 5.16C119.289 4.88 119.923 4.74 120.629 4.74C121.469 4.74 122.216 4.92 122.869 5.28C123.536 5.64 124.056 6.15333 124.429 6.82C124.816 6.20667 125.343 5.70667 126.009 5.32C126.676 4.93333 127.403 4.74 128.189 4.74Z" fill="black"/>
<path d="M138.541 6.44C138.874 5.92 139.334 5.5 139.921 5.18C140.508 4.86 141.194 4.7 141.981 4.7C142.901 4.7 143.734 4.93333 144.481 5.4C145.228 5.86667 145.814 6.53333 146.241 7.4C146.681 8.26667 146.901 9.27333 146.901 10.42C146.901 11.5667 146.681 12.58 146.241 13.46C145.814 14.3267 145.228 15 144.481 15.48C143.734 15.9467 142.901 16.18 141.981 16.18C141.208 16.18 140.521 16.02 139.921 15.7C139.334 15.38 138.874 14.9667 138.541 14.46V21.34H135.121V4.86H138.541V6.44ZM143.421 10.42C143.421 9.56667 143.181 8.9 142.701 8.42C142.234 7.92667 141.654 7.68 140.961 7.68C140.281 7.68 139.701 7.92667 139.221 8.42C138.754 8.91333 138.521 9.58667 138.521 10.44C138.521 11.2933 138.754 11.9667 139.221 12.46C139.701 12.9533 140.281 13.2 140.961 13.2C141.641 13.2 142.221 12.9533 142.701 12.46C143.181 11.9533 143.421 11.2733 143.421 10.42Z" fill="black"/>
<path d="M152.115 6.72C152.515 6.10667 153.015 5.62667 153.615 5.28C154.215 4.92 154.882 4.74 155.615 4.74V8.36H154.675C153.822 8.36 153.182 8.54667 152.755 8.92C152.329 9.28 152.115 9.92 152.115 10.84V16.02H148.695V4.86H152.115V6.72Z" fill="black"/>
<path d="M167.77 10.26C167.77 10.58 167.75 10.9133 167.71 11.26H159.97C160.023 11.9533 160.243 12.4867 160.63 12.86C161.03 13.22 161.517 13.4 162.09 13.4C162.943 13.4 163.537 13.04 163.87 12.32H167.51C167.323 13.0533 166.983 13.7133 166.49 14.3C166.01 14.8867 165.403 15.3467 164.67 15.68C163.937 16.0133 163.117 16.18 162.21 16.18C161.117 16.18 160.143 15.9467 159.29 15.48C158.437 15.0133 157.77 14.3467 157.29 13.48C156.81 12.6133 156.57 11.6 156.57 10.44C156.57 9.28 156.803 8.26667 157.27 7.4C157.75 6.53333 158.417 5.86667 159.27 5.4C160.123 4.93333 161.103 4.7 162.21 4.7C163.29 4.7 164.25 4.92667 165.09 5.38C165.93 5.83333 166.583 6.48 167.05 7.32C167.53 8.16 167.77 9.14 167.77 10.26ZM164.27 9.36C164.27 8.77333 164.07 8.30667 163.67 7.96C163.27 7.61333 162.77 7.44 162.17 7.44C161.597 7.44 161.11 7.60667 160.71 7.94C160.323 8.27333 160.083 8.74667 159.99 9.36H164.27Z" fill="black"/>
<path d="M174.114 16.18C173.141 16.18 172.274 16.0133 171.514 15.68C170.754 15.3467 170.154 14.8933 169.714 14.32C169.274 13.7333 169.028 13.08 168.974 12.36H172.354C172.394 12.7467 172.574 13.06 172.894 13.3C173.214 13.54 173.608 13.66 174.074 13.66C174.501 13.66 174.828 13.58 175.054 13.42C175.294 13.2467 175.414 13.0267 175.414 12.76C175.414 12.44 175.248 12.2067 174.914 12.06C174.581 11.9 174.041 11.7267 173.294 11.54C172.494 11.3533 171.828 11.16 171.294 10.96C170.761 10.7467 170.301 10.42 169.914 9.98C169.528 9.52667 169.334 8.92 169.334 8.16C169.334 7.52 169.508 6.94 169.854 6.42C170.214 5.88667 170.734 5.46667 171.414 5.16C172.108 4.85333 172.928 4.7 173.874 4.7C175.274 4.7 176.374 5.04667 177.174 5.74C177.988 6.43333 178.454 7.35333 178.574 8.5H175.414C175.361 8.11333 175.188 7.80667 174.894 7.58C174.614 7.35333 174.241 7.24 173.774 7.24C173.374 7.24 173.068 7.32 172.854 7.48C172.641 7.62667 172.534 7.83333 172.534 8.1C172.534 8.42 172.701 8.66 173.034 8.82C173.381 8.98 173.914 9.14 174.634 9.3C175.461 9.51333 176.134 9.72667 176.654 9.94C177.174 10.14 177.628 10.4733 178.014 10.94C178.414 11.3933 178.621 12.0067 178.634 12.78C178.634 13.4333 178.448 14.02 178.074 14.54C177.714 15.0467 177.188 15.4467 176.494 15.74C175.814 16.0333 175.021 16.18 174.114 16.18Z" fill="black"/>
<path d="M180.047 10.42C180.047 9.27333 180.26 8.26667 180.687 7.4C181.127 6.53333 181.72 5.86667 182.467 5.4C183.213 4.93333 184.047 4.7 184.967 4.7C185.753 4.7 186.44 4.86 187.027 5.18C187.627 5.5 188.087 5.92 188.407 6.44V4.86H191.827V16.02H188.407V14.44C188.073 14.96 187.607 15.38 187.007 15.7C186.42 16.02 185.733 16.18 184.947 16.18C184.04 16.18 183.213 15.9467 182.467 15.48C181.72 15 181.127 14.3267 180.687 13.46C180.26 12.58 180.047 11.5667 180.047 10.42ZM188.407 10.44C188.407 9.58667 188.167 8.91333 187.687 8.42C187.22 7.92667 186.647 7.68 185.967 7.68C185.287 7.68 184.707 7.92667 184.227 8.42C183.76 8.9 183.527 9.56667 183.527 10.42C183.527 11.2733 183.76 11.9533 184.227 12.46C184.707 12.9533 185.287 13.2 185.967 13.2C186.647 13.2 187.22 12.9533 187.687 12.46C188.167 11.9667 188.407 11.2933 188.407 10.44Z" fill="black"/>
<path d="M198.841 16.18C197.867 16.18 197.001 16.0133 196.241 15.68C195.481 15.3467 194.881 14.8933 194.441 14.32C194.001 13.7333 193.754 13.08 193.701 12.36H197.081C197.121 12.7467 197.301 13.06 197.621 13.3C197.941 13.54 198.334 13.66 198.801 13.66C199.227 13.66 199.554 13.58 199.781 13.42C200.021 13.2467 200.141 13.0267 200.141 12.76C200.141 12.44 199.974 12.2067 199.641 12.06C199.307 11.9 198.767 11.7267 198.021 11.54C197.221 11.3533 196.554 11.16 196.021 10.96C195.487 10.7467 195.027 10.42 194.641 9.98C194.254 9.52667 194.061 8.92 194.061 8.16C194.061 7.52 194.234 6.94 194.581 6.42C194.941 5.88667 195.461 5.46667 196.141 5.16C196.834 4.85333 197.654 4.7 198.601 4.7C200.001 4.7 201.101 5.04667 201.901 5.74C202.714 6.43333 203.181 7.35333 203.301 8.5H200.141C200.087 8.11333 199.914 7.80667 199.621 7.58C199.341 7.35333 198.967 7.24 198.501 7.24C198.101 7.24 197.794 7.32 197.581 7.48C197.367 7.62667 197.261 7.83333 197.261 8.1C197.261 8.42 197.427 8.66 197.761 8.82C198.107 8.98 198.641 9.14 199.361 9.3C200.187 9.51333 200.861 9.72667 201.381 9.94C201.901 10.14 202.354 10.4733 202.741 10.94C203.141 11.3933 203.347 12.0067 203.361 12.78C203.361 13.4333 203.174 14.02 202.801 14.54C202.441 15.0467 201.914 15.4467 201.221 15.74C200.541 16.0333 199.747 16.18 198.841 16.18Z" fill="black"/>
<circle cx="8" cy="10" r="8" fill="#4200FF" fill-opacity="0.5"/>
</svg>
